<?xml version="1.0" encoding="utf-8"?>
<!-- Generator: Adobe Illustrator 24.0.2, SVG Export Plug-In . SVG Version: 6.00 Build 0)  -->
<svg version="1.1" id="Layer_1" xmlns="http://www.w3.org/2000/svg" xmlns:xlink="http://www.w3.org/1999/xlink" x="0px" y="0px"
	 viewBox="0 0 560 560" enable-background="new 0 0 560 560" xml:space="preserve">
<g>
	<path d="M274.386,472c-4.729-1.467-9.707-2.405-14.141-4.498c-14.978-7.069-23.54-19.142-26.045-35.456
		c-1.006-6.555,3.111-11.113,10.244-11.197c13.34-0.157,26.684-0.064,40.026-0.07c9.975-0.004,19.951-0.031,29.926,0.009
		c8.407,0.034,11.807,4.11,10.387,12.327c-3.53,20.42-17.872,34.782-38.185,38.264c-0.595,0.102-1.156,0.409-1.732,0.62
		C281.372,472,277.879,472,274.386,472z"/>
	<path d="M279.549,394.091c-47.771,0-95.542-0.098-143.312,0.083c-9.54,0.036-15.727-3.774-19.572-12.498
		c-7.376-16.735-5.176-31.098,7.4-44.389c2.31-2.441,4.654-4.935,7.338-6.923c10.838-8.028,16.009-19.256,17.936-32.09
		c2.274-15.147,3.851-30.398,5.99-45.567c5.142-36.479,16.289-70.612,40.037-99.596c13.42-16.379,30.057-28.293,50.337-34.811
		c2.056-0.661,2.913-1.621,3.282-3.815c2.486-14.782,15.532-25.685,30.53-25.726c15.023-0.041,28.054,10.804,30.87,25.48
		c0.265,1.382,1.473,3.292,2.662,3.685c28.723,9.47,49.122,28.773,64.273,54.236c13.759,23.125,21.703,48.338,25.725,74.791
		c2.414,15.882,3.988,31.89,6.148,47.813c0.583,4.296,1.819,8.519,2.947,12.724c2.193,8.17,6.601,14.874,13.009,20.499
		c5.038,4.423,10.017,9.089,14.15,14.334c11.425,14.499,8.701,31.34,0.052,45c-3.262,5.152-8.658,6.792-14.62,6.78
		c-17.337-0.034-34.674-0.011-52.011-0.011C341.663,394.091,310.606,394.091,279.549,394.091z"/>
</g>
</svg>
