<?xml version="1.0" encoding="utf-8"?>
<!-- Generator: Adobe Illustrator 24.0.2, SVG Export Plug-In . SVG Version: 6.00 Build 0)  -->
<svg version="1.1" id="Layer_1" xmlns="http://www.w3.org/2000/svg" xmlns:xlink="http://www.w3.org/1999/xlink" x="0px" y="0px"
	 viewBox="0 0 560 560" enable-background="new 0 0 560 560" xml:space="preserve">
<g>
	<path d="M88,197.287c2.471-3.062,4.756-6.298,7.452-9.146c4.885-5.163,9.988-10.123,15.049-15.118
		c6.042-5.963,12.688-6.009,18.754,0.016c13.543,13.45,27.008,26.978,40.505,40.474c35.551,35.549,71.104,71.095,106.637,106.662
		c0.962,0.963,1.706,2.145,4.229,3.945c0.737-1.312,1.222-2.874,2.246-3.899c48.656-48.731,97.359-97.415,146.058-146.104
		c7.464-7.462,13.458-7.489,20.89-0.08c5.654,5.637,11.33,11.253,16.926,16.948c6.101,6.208,6.14,12.845-0.031,19.021
		c-59.17,59.212-118.36,118.403-177.577,177.569c-6.249,6.244-12.799,6.205-19.006,0.001
		C210.925,328.401,151.73,269.215,92.594,209.969c-1.88-1.883-3.078-4.447-4.594-6.694C88,201.279,88,199.283,88,197.287z"/>
</g>
</svg>
