<?xml version="1.0" encoding="utf-8"?>
<!-- Generator: Adobe Illustrator 24.0.2, SVG Export Plug-In . SVG Version: 6.00 Build 0)  -->
<svg version="1.1" id="Layer_1" xmlns="http://www.w3.org/2000/svg" xmlns:xlink="http://www.w3.org/1999/xlink" x="0px" y="0px"
	 viewBox="0 0 560 560" enable-background="new 0 0 560 560" xml:space="preserve">
<g>
	<path d="M468.38,472c-125.795,0-251.591,0-377.386,0c-0.058-1.119-0.166-2.237-0.166-3.356
		c-0.008-110.169-0.008-220.337,0.001-330.506c0-1.306,0.118-2.611,0.161-3.502c18.182,0,35.852,0,53.892,0
		c0,5.493-0.119,10.465,0.021,15.43c0.585,20.695,17.232,37.168,38.88,38.563c19.657,1.267,38.456-13.948,41.23-33.794
		c0.907-6.491,0.745-13.132,1.083-19.927c35.737,0,71.489,0,107.62,0c0,4.679-0.108,9.149,0.018,13.613
		c0.69,24.461,20.665,42.152,44.94,39.859c19.352-1.828,35.088-18.412,35.853-37.929c0.199-5.076,0.03-10.166,0.03-15.504
		c18.146,0,35.783,0,53.733,0c0,1.857-0.001,3.458,0,5.058c0.085,109.171,0.171,218.341,0.249,327.512
		C468.54,469.012,468.436,470.506,468.38,472z M441.44,229.454c-108.06,0-215.687,0-323.399,0c0,71.948,0,143.621,0,215.317
		c107.952,0,215.676,0,323.399,0C441.44,372.875,441.44,301.287,441.44,229.454z"/>
	<path d="M400.31,129.363c-0.001,4.614,0.068,9.229-0.013,13.841c-0.259,14.569-11.501,26.061-25.708,26.343
		c-14.772,0.293-26.824-10.731-27.329-25.472c-0.342-9.964-0.356-19.96,0.009-29.922c0.533-14.587,12.523-25.658,27.008-25.446
		c14.41,0.211,25.764,11.719,26.022,26.441C400.38,119.884,400.311,124.624,400.31,129.363z"/>
	<path d="M158.313,128.977c0-4.488-0.048-8.978,0.009-13.465c0.181-14.402,10.667-25.825,24.525-26.762
		c14.074-0.951,26.698,8.584,28.002,22.842c1.084,11.846,1.025,23.961-0.12,35.803c-1.339,13.849-14.166,23.151-28.219,22.101
		c-13.36-0.998-23.896-12.264-24.166-25.932c-0.096-4.861-0.015-9.725-0.015-14.587
		C158.323,128.977,158.318,128.977,158.313,128.977z"/>
	<path d="M268.175,258.392c0,12.259,0,24.413,0,36.912c-14.005,0-27.978,0-42.161,0c0-12.25,0-24.422,0-36.912
		C239.987,258.392,253.971,258.392,268.175,258.392z"/>
	<path d="M337.029,258.363c0,12.335,0,24.489,0,36.964c-13.994,0-27.883,0-42.084,0c0-12.152,0-24.413,0-36.964
		C308.843,258.363,322.832,258.363,337.029,258.363z"/>
	<path d="M358.602,258.302c14.041,0,27.936,0,42.087,0c0,12.375,0,24.626,0,37.112c-14.04,0-27.94,0-42.087,0
		C358.602,283.048,358.602,270.789,358.602,258.302z"/>
	<path d="M225.975,357.771c0-12.372,0-24.531,0-36.967c14.014,0,27.902,0,42.105,0c0,12.207,0,24.449,0,36.967
		C254.21,357.771,240.319,357.771,225.975,357.771z"/>
	<path d="M336.999,357.846c-14.154,0-28.046,0-42.147,0c0-12.452,0-24.707,0-37.122c14.116,0,28.014,0,42.147,0
		C336.999,333.08,336.999,345.24,336.999,357.846z"/>
	<path d="M358.592,320.723c14.101,0,27.998,0,42.124,0c0,12.329,0,24.492,0,36.988c-13.934,0-27.91,0-42.124,0
		C358.592,345.516,358.592,333.366,358.592,320.723z"/>
	<path d="M226.064,384.304c14.024,0,27.92,0,42.073,0c0,12.346,0,24.597,0,37.079c-14.031,0-27.923,0-42.073,0
		C226.064,409.026,226.064,396.782,226.064,384.304z"/>
	<path d="M358.53,421.357c0-12.424,0-24.583,0-37.014c14.059,0,27.948,0,42.127,0c0,12.256,0,24.506,0,37.014
		C386.743,421.357,372.85,421.357,358.53,421.357z"/>
	<path d="M158.542,320.719c13.982,0,27.766,0,41.895,0c0,12.317,0,24.545,0,37.051c-13.922,0-27.791,0-41.895,0
		C158.542,345.414,158.542,333.163,158.542,320.719z"/>
	<path d="M158.494,421.295c0-12.408,0-24.576,0-36.983c14.064,0,27.943,0,42.055,0c0,12.354,0,24.509,0,36.983
		C186.586,421.295,172.721,421.295,158.494,421.295z"/>
	<path d="M337.014,421.392c-14.227,0-28.119,0-42.195,0c0-12.379,0-24.538,0-37.01c14.033,0,28.003,0,42.195,0
		C337.014,396.694,337.014,408.851,337.014,421.392z"/>
</g>
</svg>
