<?xml version="1.0" encoding="utf-8"?>
<!-- Generator: Adobe Illustrator 24.0.3, SVG Export Plug-In . SVG Version: 6.00 Build 0)  -->
<svg version="1.1" id="Layer_1" xmlns="http://www.w3.org/2000/svg" xmlns:xlink="http://www.w3.org/1999/xlink" x="0px" y="0px"
	 viewBox="0 0 305.028 288" enable-background="new 0 0 305.028 288" xml:space="preserve">
<g>
	<path d="M153.201,175.193c-6.95,6.763-13.746,13.359-20.523,19.976c-14.576,14.234-29.043,28.58-43.741,42.687
		c-12.312,11.818-31.902,7.208-37.174-8.646c-3.068-9.224-0.603-17.192,6.177-23.969c19.624-19.618,39.244-39.239,58.862-58.863
		c0.955-0.955,1.869-1.952,2.97-3.104c-1.049-1.119-1.941-2.124-2.89-3.073c-19.705-19.713-39.452-39.385-59.112-59.144
		c-9.927-9.977-9.643-24.721,0.472-33.54c9.071-7.909,22.026-7.345,31.173,1.536c15.692,15.237,31.374,30.486,46.897,45.894
		c5.487,5.446,10.498,11.371,15.896,17.261c2.094-1.954,3.099-2.836,4.043-3.779c19.801-19.794,39.547-39.644,59.409-59.377
		c12.376-12.296,32.389-7.829,37.649,8.377c3,9.244,0.432,17.187-6.335,23.95c-18.743,18.731-37.468,37.48-56.221,56.201
		c-1.765,1.762-3.677,3.376-5.819,5.332c1.259,1.326,2.15,2.307,3.086,3.243c19.793,19.802,39.636,39.555,59.37,59.416
		c11.234,11.307,8.82,28.998-4.792,36.265c-9.015,4.813-19.412,3.127-27.128-4.566c-19.738-19.681-39.424-39.413-59.136-59.119
		C155.382,177.201,154.379,176.303,153.201,175.193z"/>
</g>
</svg>
