<?xml version="1.0" encoding="utf-8"?>
<!-- Generator: Adobe Illustrator 24.0.2, SVG Export Plug-In . SVG Version: 6.00 Build 0)  -->
<svg version="1.1" id="Layer_1" xmlns="http://www.w3.org/2000/svg" xmlns:xlink="http://www.w3.org/1999/xlink" x="0px" y="0px"
	 viewBox="0 0 560 560" enable-background="new 0 0 560 560" xml:space="preserve">
<g>
	<path d="M362.796,472c-1.611-0.982-3.222-1.964-4.833-2.946c1.457-1.585,2.616-3.861,4.421-4.637
		c8.558-3.678,17.284-6.966,25.97-10.343c1.603-0.623,3.295-1.019,5.306-1.629c-8.345-36.175-16.648-72.165-24.998-108.36
		c-10.29,0.41-20.118-1.037-29.431-4.973c-27.399-11.581-44.022-32.723-52.63-60.542c-5.806-18.765-5.973-37.781-0.765-56.808
		c0.672-2.454,1.769-3.685,4.31-4.265c38.62-8.807,77.213-17.73,115.84-26.505c1.39-0.316,3.631,0.077,4.518,1.03
		c28.631,30.765,35.582,80.593,13.791,116.994c-7.896,13.189-18.7,23.229-32.971,29.759c8.33,36.132,16.63,72.131,24.974,108.321
		c5.989-0.825,11.733-1.843,17.522-2.348c5.327-0.465,10.712-0.613,16.052-0.41c1.973,0.075,3.892,1.55,5.836,2.387
		c-1.385,1.62-2.452,3.959-4.211,4.737c-8.064,3.568-16.157,7.215-24.544,9.876c-15.938,5.056-32.273,8.528-48.971,10.064
		c-0.583,0.054-1.139,0.392-1.708,0.598C371.782,472,367.289,472,362.796,472z M291.247,241.482
		c9.983-7.02,20.641-7.747,31.603-5.875c6.236,1.065,12.371,2.86,18.457,4.646c28.654,8.407,53.523,0.275,76.203-17.34
		c0.762-0.591,1.197-2.776,0.719-3.6c-3.306-5.696-6.935-11.205-10.374-16.826c-1.263-2.065-2.755-2.206-5.01-1.67
		c-15.267,3.634-30.573,7.102-45.868,10.615c-19.908,4.573-39.823,9.115-59.713,13.766c-1.251,0.293-3.085,1.223-3.323,2.184
		C292.794,232.02,292.101,236.771,291.247,241.482z M415.627,254.095c3.903,9.432,0.193,17.272-3.675,24.759
		c-3.811,7.375-8.544,14.274-13.012,21.612c20.94-11.313,34.456-35.814,26.906-48.781
		C422.546,252.463,419.189,253.255,415.627,254.095z"/>
	<path d="M193.677,307.449c-9.366,35.813-18.711,71.545-28.141,107.6c4.443,1.56,8.715,2.825,12.794,4.548
		c6.069,2.564,12.106,5.252,17.93,8.317c1.846,0.971,2.967,3.317,4.42,5.034c-2.11,0.795-4.281,2.398-6.321,2.246
		c-9.299-0.693-18.665-1.315-27.813-3.007c-18.165-3.36-35.892-8.432-52.711-16.257c-2.806-1.305-5.496-2.952-8.001-4.77
		c-1.044-0.758-1.462-2.376-2.165-3.604c1.242-0.697,2.496-2.013,3.725-1.99c6.714,0.127,13.446,0.348,20.126,1.001
		c5.056,0.494,10.044,1.683,15.492,2.638c9.368-35.836,18.707-71.556,28.097-107.476c-9.857-4.709-18.217-11.103-24.945-19.495
		c-15.119-18.859-20.785-40.673-19.021-64.397c1.796-24.155,10.93-45.343,27.585-63.163c1.679-1.796,3.141-2.21,5.479-1.595
		c38.428,10.104,76.884,20.106,115.302,30.247c1.273,0.336,2.91,1.698,3.231,2.89c10.671,39.633-4.755,85.896-40.104,108.939
		c-12.97,8.455-27.157,12.926-42.776,12.296C195.246,307.427,194.631,307.449,193.677,307.449z M150.168,174.823
		c11.788-1.558,21.319,2.721,30.114,9.112c4.019,2.921,7.954,6.11,11.332,9.732c13.907,14.908,30.947,23.193,51.194,24.953
		c10.091,0.877,20.096,0.395,30.742-2.33c-0.693-7.296-1.432-14.45-2.021-21.617c-0.206-2.509-1.382-3.581-3.799-4.195
		c-15.087-3.83-30.136-7.813-45.197-11.749c-19.881-5.195-39.753-10.427-59.662-15.514c-1.306-0.334-3.478-0.094-4.245,0.77
		C155.59,167.405,152.953,171.179,150.168,174.823z M217.764,277.111c24.105-0.344,46.034-14.723,47.028-30.722
		c-3.378-0.894-6.802-1.8-9.731-2.575C249.542,262.782,232.28,267.983,217.764,277.111z"/>
	<path d="M178.833,151.629c-0.5-1.848-0.779-2.735-0.977-3.639c-0.716-3.279-1.364-6.574-2.111-9.846
		c-2.824-12.365-9.806-20.971-22.214-24.844c-3.739-1.167-7.313-2.864-11.055-4.356c5.977-8.549,20.783-8.895,28.416-0.945
		c4.769,4.966,8.322,10.914,8.999,17.704c0.746,7.48,0.185,15.093,0.117,22.647C180,149.125,179.473,149.895,178.833,151.629z"/>
	<path d="M351.04,176.254c6.872-0.074,12.464,5.426,12.452,12.247c-0.011,6.599-5.498,12.164-12.118,12.291
		c-6.685,0.128-12.475-5.603-12.461-12.332C338.927,181.809,344.375,176.326,351.04,176.254z"/>
	<path d="M255.996,112.038c-6.483,0.065-11.683-4.969-11.797-11.42c-0.116-6.581,5.173-11.971,11.716-11.937
		c6.335,0.032,11.664,5.349,11.695,11.667C267.641,106.68,262.381,111.975,255.996,112.038z"/>
	<path d="M379.805,144.945c-5.932,0.042-10.744-4.683-10.749-10.558c-0.005-5.854,4.835-10.614,10.749-10.571
		c5.74,0.042,10.447,4.664,10.572,10.382C390.503,140.01,385.69,144.903,379.805,144.945z"/>
	<path d="M363.559,94.705c0.089,3.402-2.578,6.23-5.97,6.331c-3.405,0.102-6.197-2.569-6.277-6.004
		c-0.08-3.435,2.565-6.25,5.952-6.337C360.634,88.609,363.471,91.317,363.559,94.705z"/>
	<path d="M190.631,126.417c2.389-10.024-1.084-17.454-9.95-22.505c4.796-2.842,10.46-1.248,12.512,3.421
		C196.137,114.029,194.665,120.327,190.631,126.417z"/>
	<path d="M326.823,92.071c1.484-1.12,2.838-2.87,4.484-3.211c2.392-0.496,3.995,1.295,4.107,3.731
		c0.113,2.456-1.408,4.339-3.781,4.083c-1.667-0.18-3.174-1.838-4.752-2.836C326.861,93.248,326.842,92.659,326.823,92.071z"/>
</g>
</svg>
