<?xml version="1.0" encoding="utf-8"?>
<!-- Generator: Adobe Illustrator 24.0.3, SVG Export Plug-In . SVG Version: 6.00 Build 0)  -->
<svg version="1.1" id="Layer_1" xmlns="http://www.w3.org/2000/svg" xmlns:xlink="http://www.w3.org/1999/xlink" x="0px" y="0px"
	 viewBox="0 0 287.846 288" enable-background="new 0 0 287.846 288" xml:space="preserve">
<path d="M143.923,20.003C75.441,20.003,19.926,75.518,19.926,144s55.515,123.997,123.997,123.997S267.92,212.482,267.92,144
	S212.404,20.003,143.923,20.003z M206.717,203.766c-1.684,8.167-11.323,11.282-17.45,5.595c-3.665-3.402-7.111-7.042-10.65-10.58
	c-13.692-13.689-27.348-27.414-41.099-41.044c-2.808-2.783-4.114-5.883-4.099-9.848c0.084-22.068,0.016-44.137,0.054-66.206
	c0.014-8.034,6.99-13.179,14.112-10.52c4.204,1.57,6.758,5.269,6.781,10.131c0.049,10.255,0.015,20.51,0.015,30.765
	c0.004,10.091,0.043,20.182-0.033,30.272c-0.013,1.775,0.477,3.029,1.754,4.298c15.707,15.619,31.341,31.31,47.029,46.949
	C205.998,196.435,207.553,199.711,206.717,203.766z"/>
</svg>
