<?xml version="1.0" encoding="utf-8"?>
<!-- Generator: Adobe Illustrator 24.0.2, SVG Export Plug-In . SVG Version: 6.00 Build 0)  -->
<svg version="1.1" id="Layer_1" xmlns="http://www.w3.org/2000/svg" xmlns:xlink="http://www.w3.org/1999/xlink" x="0px" y="0px"
	 viewBox="0 0 560 560" enable-background="new 0 0 560 560" xml:space="preserve">
<g>
	<path d="M88,299.836c0.939-4.096,1.693-8.245,2.845-12.281c8.769-30.719,36.532-51.876,68.467-52.12
		c16.21-0.124,32.421-0.023,48.632-0.024c1.481,0,2.962,0,4.845,0c1.064,18.714,7.881,34.717,21.098,47.809
		c-45.758,17.736-64.134,51.827-60.364,99.771c-29.637-1.681-57.861-7.607-85.524-16.536C88,344.25,88,322.043,88,299.836z"/>
	<path d="M282.624,292.817c12.063,0.571,24.272,0.15,36.16,1.905c31.338,4.628,56.811,31.757,58.796,63.297
		c1.329,21.119,0.599,42.37,0.599,63.562c0,1.11-1.571,2.653-2.779,3.261c-11.771,5.927-24.362,9.441-37.221,11.968
		c-44.054,8.658-87.557,5.021-130.677-6.191c-6.14-1.597-12.191-3.538-18.306-5.235c-1.813-0.503-2.555-1.357-2.544-3.364
		c0.111-20.45-0.348-40.915,0.259-61.349c1.012-34.071,30.657-64.576,64.662-66.787c10.301-0.67,20.682-0.104,31.027-0.104
		C282.608,293.46,282.616,293.139,282.624,292.817z"/>
	<path d="M391.728,383.801c0-6.402,0.028-11.981-0.005-17.56c-0.109-18.617-5.307-35.627-16.273-50.746
		c-10.397-14.334-24.003-24.453-40.633-30.516c-1.051-0.383-2.113-0.738-3.166-1.119c-0.095-0.034-0.157-0.161-0.559-0.596
		c12.938-13.137,20.052-29.027,20.931-47.856c1.513,0,2.737,0,3.961,0c14.217,0,28.434-0.035,42.651,0.007
		c40.82,0.121,72.487,31.792,72.605,72.631c0.052,18.083-0.056,36.167,0.083,54.249c0.02,2.556-0.866,3.715-3.043,4.739
		c-15.137,7.117-31.154,11.179-47.602,13.574C411.322,381.969,401.875,382.703,391.728,383.801z"/>
	<path d="M226.317,233.134c0.1-31.039,25.215-56.051,56.243-56.013c31.057,0.038,56.313,25.511,56.127,56.611
		c-0.185,30.948-25.503,55.91-56.538,55.743C251.052,289.309,226.217,264.247,226.317,233.134z"/>
	<path d="M183.978,118.956c30.822,0.364,55.918,25.27,56.05,55.725c0.011,2.599-0.744,4.314-2.745,6.027
		c-12.044,10.31-19.648,23.283-23.025,38.808c-0.388,1.785-1.754,3.991-3.296,4.797c-21.074,11.004-41.827,10.069-60.788-4.219
		c-19.359-14.588-26.534-34.821-20.717-58.313c5.655-22.838,21.029-36.705,44.149-41.626
		C176.994,119.433,180.517,119.34,183.978,118.956z"/>
	<path d="M375.408,119.191c29.177-0.016,53.466,22.154,56.052,51.16c2.6,29.17-17.935,55.675-46.915,60.445
		c-10.318,1.698-20.346,0.476-30.078-3.387c-1.914-0.76-2.83-1.697-3.179-3.93c-3.127-19.984-13.029-35.858-29.687-47.336
		c-2.405-1.657-2.366-3.462-2.164-5.697C322.07,141.352,346.255,119.207,375.408,119.191z"/>
</g>
</svg>
