<?xml version="1.0" encoding="utf-8"?>
<!-- Generator: Adobe Illustrator 24.0.2, SVG Export Plug-In . SVG Version: 6.00 Build 0)  -->
<svg version="1.1" id="Layer_1" xmlns="http://www.w3.org/2000/svg" xmlns:xlink="http://www.w3.org/1999/xlink" x="0px" y="0px"
	 viewBox="0 0 560 560" enable-background="new 0 0 560 560" xml:space="preserve">
<g>
	<path d="M88,333.52c0-7.984,0-15.969,0-23.953c0.223-1.205,0.556-2.402,0.654-3.618c3.047-37.826,15.9-72.228,39.57-101.617
		c46.938-58.278,108.538-83.338,182.399-71.662c90.587,14.32,150.938,86.148,159.64,169.833
		c4.462,42.915-5.087,82.939-27.618,119.848c-3.621,5.932-8.236,8.646-15.27,8.617c-41.16-0.172-82.322-0.084-123.483-0.084
		c-57.501,0-115.002-0.031-172.503,0.049c-5.679,0.008-10.276-1.555-13.404-6.488c-13.432-21.18-22.693-44.014-26.965-68.768
		C89.754,348.336,88.993,340.908,88,333.52z M238.454,362.947c0.051,22.838,19.858,41.75,42.707,40.778
		c16.706-0.711,31.932-11.89,37.206-27.317c5.717-16.724,1.083-34.308-12.395-45.261c-2.771-2.252-2.971-4.061-2.14-7.151
		c6.789-25.239,13.437-50.515,20.078-75.793c2.277-8.666-1.756-16.041-9.759-18.115c-7.56-1.959-14.359,2.506-16.623,11.033
		c-6.77,25.501-13.534,51.005-20.193,76.535c-0.701,2.688-1.655,4.11-4.717,4.598C252.68,325.433,238.409,342.577,238.454,362.947z
		 M252.242,184.745c0.15,15.159,12.375,27.254,27.475,27.182c15.136-0.072,27.3-12.275,27.287-27.372
		c-0.014-15.259-12.475-27.59-27.66-27.37C264.174,157.404,252.093,169.69,252.242,184.745z M142.305,348.74
		c15.307,0.233,27.751-11.889,27.863-27.142c0.11-15.013-12.074-27.386-27.156-27.579c-15.017-0.192-27.379,11.949-27.558,27.064
		C115.273,336.375,127.052,348.507,142.305,348.74z M443.799,321.271c-0.095-15.174-12.277-27.303-27.371-27.252
		c-15.04,0.051-27.324,12.355-27.346,27.389c-0.023,15.222,12.377,27.47,27.67,27.331
		C432.019,348.602,443.895,336.541,443.799,321.271z M183.921,252.921c15.192-0.058,27.291-12.178,27.27-27.317
		c-0.021-15.093-12.23-27.344-27.303-27.397c-15.191-0.053-27.621,12.448-27.458,27.616
		C156.593,241.039,168.705,252.978,183.921,252.921z M375.5,252.921c15.194-0.033,27.299-12.118,27.317-27.27
		c0.017-15.077-12.18-27.358-27.256-27.444c-15.182-0.087-27.63,12.391-27.505,27.569C348.18,240.977,360.29,252.954,375.5,252.921z
		"/>
</g>
</svg>
