<?xml version="1.0" encoding="utf-8"?>
<!-- Generator: Adobe Illustrator 24.0.2, SVG Export Plug-In . SVG Version: 6.00 Build 0)  -->
<svg version="1.1" id="Layer_1" xmlns="http://www.w3.org/2000/svg" xmlns:xlink="http://www.w3.org/1999/xlink" x="0px" y="0px"
	 viewBox="0 0 560 560" enable-background="new 0 0 560 560" xml:space="preserve">
<g>
	<path d="M88,321.544c0.693-2.878,1.239-5.8,2.101-8.626c7.342-24.067,23.39-38.457,48.132-43.123
		c0.734-0.138,1.474-0.263,2.193-0.458c0.337-0.091,0.631-0.337,1.033-0.561c-26.569-3.973-42.668-26.617-41.399-49.774
		c1.309-23.883,20.448-42.856,44.908-44.464c23.355-1.535,44.402,15.184,48.92,39.031c3.811,20.114-6.578,48.053-39.895,55.461
		c10.222,0,19.946,0.19,29.659-0.069c6.201-0.165,11.408-3.053,16.091-7.101c15.286-13.213,30.693-26.285,45.987-39.488
		c4.453-3.844,9.239-5.397,14.79-2.869c5.634,2.566,7.922,7.185,7.893,13.249c-0.064,13.472-0.096,26.945,0.019,40.416
		c0.044,5.133-1.853,9.103-5.719,12.4c-17.841,15.215-35.599,30.527-53.472,45.705c-1.916,1.627-2.61,3.285-2.605,5.732
		c0.066,32.059,0.045,64.118,0.042,96.177c-0.001,10.824-3.858,14.723-14.55,14.723c-29.938,0.001-59.877-0.099-89.815,0.075
		c-6.932,0.04-11.835-2.259-14.315-8.917C88,399.891,88,360.717,88,321.544z"/>
	<path d="M417.356,268.92c3.804,0.845,7.094,1.425,10.299,2.31c25.652,7.088,43.441,29.994,43.55,56.509
		c0.148,35.917,0.054,71.835,0.032,107.753c-0.005,7.712-4.596,12.381-12.33,12.393c-31.303,0.048-62.607,0.048-93.91,0.002
		c-8.04-0.012-12.407-4.655-12.414-13.082c-0.028-32.426-0.044-64.852,0.043-97.277c0.008-2.864-0.813-4.766-3.047-6.658
		c-17.791-15.071-35.438-30.311-53.177-45.445c-3.763-3.211-5.614-7.086-5.579-12.072c0.097-13.593,0.069-27.188,0.017-40.781
		c-0.023-5.919,2.27-10.42,7.706-12.988c5.511-2.604,10.361-1.186,14.822,2.652c15.218,13.094,30.553,26.052,45.689,39.24
		c5.941,5.176,12.538,7.829,20.435,7.657c8.349-0.181,16.704-0.041,25.121-0.041c-4.821-1.78-9.832-3.012-14.2-5.414
		c-4.523-2.487-8.922-5.635-12.456-9.365c-3.62-3.821-6.749-8.412-8.943-13.194c-2.137-4.657-3.472-9.921-3.955-15.032
		c-0.483-5.123-0.171-10.547,0.995-15.56c5.406-23.236,27.103-38.039,51.697-35.71c21.863,2.071,40.21,21.708,41.439,44.278
		C460.378,240.901,445.83,264.26,417.356,268.92z"/>
	<path d="M268.401,148.091c0-7.718-0.03-15.436,0.009-23.154c0.036-7.199,4.746-12.263,11.282-12.221
		c6.524,0.041,11.135,5.097,11.149,12.358c0.031,15.311,0.034,30.623-0.001,45.935c-0.017,7.261-4.647,12.193-11.28,12.161
		c-6.607-0.032-11.122-4.98-11.152-12.298C268.377,163.278,268.401,155.684,268.401,148.091z"/>
	<path d="M229.895,195.291c-1.334-0.729-4.422-1.696-6.529-3.696c-8.041-7.635-15.82-15.55-23.588-23.467
		c-4.608-4.695-4.586-11.754-0.181-16.102c4.492-4.434,11.25-4.367,16.081,0.379c7.912,7.773,15.748,15.626,23.533,23.526
		c3.674,3.729,4.479,8.293,2.471,12.7C239.73,192.912,236.299,194.993,229.895,195.291z"/>
	<path d="M363.706,160.347c-1.439,2.641-2.401,5.736-4.402,7.842c-7.636,8.039-15.55,15.819-23.476,23.577
		c-4.71,4.61-11.768,4.561-16.1,0.139c-4.414-4.507-4.314-11.274,0.425-16.084c7.784-7.901,15.633-15.738,23.529-23.528
		c3.717-3.667,8.268-4.447,12.704-2.458C360.438,151.652,362.863,155.404,363.706,160.347z"/>
</g>
</svg>
