<?xml version="1.0" encoding="utf-8"?>
<!-- Generator: Adobe Illustrator 24.0.2, SVG Export Plug-In . SVG Version: 6.00 Build 0)  -->
<svg version="1.1" id="Layer_1" xmlns="http://www.w3.org/2000/svg" xmlns:xlink="http://www.w3.org/1999/xlink" x="0px" y="0px"
	 viewBox="0 0 560 560" enable-background="new 0 0 560 560" xml:space="preserve">
<g>
	<path d="M88,279.626c2.488-2.388,4.842-4.937,7.484-7.141c54.872-45.769,109.766-91.512,164.684-137.224
		c12.063-10.041,26.785-10.068,38.918-0.012c17.666,14.642,35.222,29.416,52.828,44.131c1.02,0.852,2.064,1.676,3.612,2.932
		c0.101-1.859,0.22-3.04,0.221-4.22c0.014-13.346-0.009-26.692,0.017-40.038c0.014-7.064,2.414-9.508,9.397-9.524
		c13.97-0.032,27.939-0.031,41.909,0c6.952,0.016,9.494,2.575,9.497,9.511c0.013,30.309,0.051,60.618-0.064,90.927
		c-0.012,3.034,0.844,5.006,3.204,6.94c15.529,12.724,30.932,25.602,46.378,38.427c6.581,5.465,6.891,8.787,1.429,15.284
		c-3.852,4.582-7.665,9.196-11.541,13.758c-4.198,4.942-8.275,5.297-13.204,1.186c-53.057-44.247-106.11-88.498-159.166-132.745
		c-1.234-1.029-2.49-2.032-3.981-3.248c-7.647,6.363-15.201,12.637-22.743,18.926c-46.644,38.891-93.283,77.788-139.929,116.676
		c-5.558,4.633-9.405,4.303-14.006-1.217c-5.007-6.008-9.965-12.057-14.944-18.088C88,283.119,88,281.372,88,279.626z"/>
	<path d="M310.116,432.936c0-30.615,0-60.646,0-90.977c-20.384,0-40.482,0-60.988,0c0,30.272,0,60.398,0,90.977
		c-1.736,0-3.07,0-4.405,0c-28.067,0-56.135,0.006-84.202-0.003c-11.777-0.003-17.84-6-17.841-17.637
		c-0.005-36.301,0.027-72.601-0.057-108.901c-0.007-2.876,0.823-4.76,3.098-6.629c43.554-35.788,87.03-71.67,130.526-107.529
		c1.046-0.862,2.135-1.673,3.459-2.707c8.324,6.848,16.59,13.636,24.842,20.44c36.279,29.908,72.539,59.838,108.866,89.686
		c2.205,1.812,3.241,3.59,3.232,6.55c-0.108,36.55-0.063,73.1-0.075,109.651c-0.004,10.708-6.259,17.056-16.905,17.068
		c-28.566,0.032-57.133,0.011-85.699,0.011C312.871,432.936,311.774,432.936,310.116,432.936z"/>
</g>
</svg>
