<?xml version="1.0" encoding="utf-8"?>
<!-- Generator: Adobe Illustrator 24.0.2, SVG Export Plug-In . SVG Version: 6.00 Build 0)  -->
<svg version="1.1" id="Layer_1" xmlns="http://www.w3.org/2000/svg" xmlns:xlink="http://www.w3.org/1999/xlink" x="0px" y="0px"
	 viewBox="0 0 560 560" enable-background="new 0 0 560 560" xml:space="preserve">
<g>
	<path d="M88,385.918c0-70.363,0-140.725,0-211.088c0.256-0.81,0.591-1.604,0.756-2.432c4.105-20.611,21.822-35.685,42.62-35.702
		c98.79-0.08,197.58-0.087,296.37,0.001c23.858,0.021,43.408,19.525,43.452,43.38c0.123,66.858,0.123,133.716,0,200.573
		c-0.044,23.86-19.564,43.367-43.446,43.391c-98.79,0.098-197.58,0.098-296.37-0.025c-14.194-0.018-25.659-6.245-34.46-17.406
		C92.096,400.491,89.85,393.3,88,385.918z M207.772,360.285c4.737,0,9.474,0,14.211,0c14.585,0,29.17,0.021,43.754-0.008
		c9.196-0.019,13.86-4.677,13.89-13.769c0.006-1.87,0.007-3.74,0-5.609c-0.104-24.87-18.979-44.238-43.819-44.567
		c-18.695-0.247-37.399-0.241-56.094,0.012c-14.747,0.2-26.722,6.389-35.494,18.319c-5.709,7.764-7.934,16.617-8.42,26.241
		c-0.842,16.689,5.286,19.854,19.244,19.491C172.61,359.939,190.196,360.285,207.772,360.285z M167.929,240.32
		c-0.083,22.052,17.778,40.025,39.796,40.045c21.884,0.02,39.678-17.651,39.869-39.595c0.192-22.039-17.502-40.035-39.605-40.279
		C186.132,200.251,168.012,218.265,167.929,240.32z M367.639,208.512c-14.204,0-28.409-0.013-42.613,0.005
		c-8.039,0.01-13.331,4.733-13.375,11.873c-0.044,7.152,5.282,12.068,13.194,12.073c28.409,0.018,56.817,0.018,85.226,0
		c7.859-0.005,13.314-5.013,13.261-12.07c-0.052-7.034-5.503-11.868-13.454-11.877C395.799,208.5,381.719,208.512,367.639,208.512z
		 M367.404,296.28c14.452,0,28.905,0.053,43.356-0.023c7.191-0.038,12.398-4.946,12.573-11.568
		c0.18-6.799-5.003-12.281-12.282-12.31c-29.028-0.115-58.058-0.067-87.086-0.032c-4.382,0.005-8.04,1.738-10.439,5.511
		c-2.465,3.876-2.681,8.043-0.517,12.075c2.232,4.158,5.862,6.337,10.664,6.339C338.25,296.28,352.827,296.276,367.404,296.28z
		 M367.98,336.352c0-0.009,0-0.019,0-0.028c-14.328,0-28.656-0.055-42.982,0.056c-2.304,0.018-4.793,0.354-6.864,1.283
		c-5.038,2.259-7.506,8.027-6.219,13.489c1.273,5.403,6.203,9.1,12.593,9.111c28.655,0.048,57.311,0.057,85.965-0.052
		c2.276-0.009,4.753-0.627,6.78-1.66c4.698-2.396,7.018-8.074,5.774-13.018c-1.339-5.32-5.75-9.099-11.317-9.142
		C397.134,336.276,382.557,336.352,367.98,336.352z"/>
</g>
</svg>
