<?xml version="1.0" encoding="utf-8"?>
<!-- Generator: Adobe Illustrator 24.0.2, SVG Export Plug-In . SVG Version: 6.00 Build 0)  -->
<svg version="1.1" id="Layer_1" xmlns="http://www.w3.org/2000/svg" xmlns:xlink="http://www.w3.org/1999/xlink" x="0px" y="0px"
	 viewBox="0 0 560 560" enable-background="new 0 0 560 560" xml:space="preserve">
<g>
	<path d="M88,352.982c1.193-5.312,2.094-10.711,3.634-15.921c4.779-16.162,12.839-30.381,24.886-42.394
		c49.468-49.326,98.796-98.792,148.232-148.151c2.085-2.082,4.553-3.935,7.149-5.319c5.573-2.973,11.047-1.988,15.424,2.313
		c4.533,4.455,5.574,9.981,2.511,15.705c-1.39,2.598-3.243,5.068-5.327,7.157c-43.789,43.89-87.581,87.779-131.534,131.506
		c-8.697,8.652-17.189,17.382-23.57,27.93c-6.265,10.355-10.759,21.332-11.583,33.585c-0.907,13.492,2.438,25.939,10.708,36.492
		c5.483,6.996,11.707,13.76,18.749,19.119c20.419,15.541,42.405,15.176,64.799,4.281c11.324-5.509,21.215-13.065,30.089-21.942
		c59.354-59.373,118.745-118.708,177.911-178.268c5.455-5.491,10.234-12.025,13.915-18.837c10.161-18.806,6.768-37.236-8.676-52.022
		c-16.7-15.989-36.492-17.445-56.894-3.901c-4.438,2.946-8.66,6.38-12.432,10.141c-50.881,50.736-101.666,101.568-152.469,152.382
		c-5.108,5.109-10.487,9.991-15.18,15.46c-5.081,5.921-8.909,12.692-9.058,20.855c-0.271,14.928,14.295,26.089,28.603,21.95
		c8.537-2.469,15.26-7.818,21.376-13.954c40.858-40.994,81.664-82.04,122.495-123.061c2.108-2.118,4.112-4.394,6.47-6.197
		c6.799-5.197,14.004-4.293,19.516,2.21c3.719,4.387,4.579,9.596,1.621,14.558c-1.878,3.151-4.5,5.936-7.116,8.558
		c-42.128,42.2-84.294,84.362-126.502,126.482c-4.401,4.392-8.79,8.91-13.754,12.603c-19.534,14.532-40.993,13.972-59.624-1.748
		c-5.469-4.615-10.524-10.016-14.677-15.836c-10.711-15.01-11.984-31.264-3.309-47.584c3.46-6.509,7.976-12.775,13.173-17.995
		c59.328-59.576,118.892-118.917,178.369-178.345c26.35-26.328,62.945-28.288,91.879-4.663
		c14.659,11.969,26.701,26.031,31.35,44.895c5.775,23.432-0.129,44.553-16.794,61.384c-67.844,68.524-135.802,136.947-204.59,204.52
		c-28.861,28.351-76.953,39.256-118.375,5.665c-13.111-10.632-24.253-22.962-32.077-38.058c-4.512-8.705-7.483-17.904-8.652-27.665
		c-0.089-0.74-0.439-1.449-0.668-2.172C88,363.462,88,358.222,88,352.982z"/>
</g>
</svg>
