<?xml version="1.0" encoding="utf-8"?>
<!-- Generator: Adobe Illustrator 24.0.2, SVG Export Plug-In . SVG Version: 6.00 Build 0)  -->
<svg version="1.1" id="Layer_1" xmlns="http://www.w3.org/2000/svg" xmlns:xlink="http://www.w3.org/1999/xlink" x="0px" y="0px"
	 viewBox="0 0 560 560" enable-background="new 0 0 560 560" xml:space="preserve">
<g>
	<path d="M88,391.906c1.006-0.919,2.05-1.799,3.012-2.761c76.546-76.534,153.087-153.073,229.616-229.624
		c0.878-0.879,1.59-1.924,2.045-2.48c26.812,26.813,53.297,53.298,80.008,80.01c-0.45,0.471-1.435,1.544-2.464,2.572
		C323.68,316.166,247.139,392.705,170.604,469.25c-0.877,0.877-1.675,1.832-2.511,2.75c-26.636,0-53.271,0-80.094,0
		C88,445.302,88,418.604,88,391.906z"/>
	<path d="M346.589,133.934c13.277-13.363,26.274-26.821,39.711-39.825c7.714-7.465,20.206-7.474,27.915,0.034
		c17.422,16.967,34.611,34.182,51.598,51.586c7.14,7.315,7.941,19.385,0.981,26.692c-13.306,13.97-27.502,27.094-41.237,40.48
		C399.576,186.92,373.122,160.467,346.589,133.934z"/>
</g>
</svg>
