<?xml version="1.0" encoding="utf-8"?>
<!-- Generator: Adobe Illustrator 24.0.3, SVG Export Plug-In . SVG Version: 6.00 Build 0)  -->
<svg version="1.1" id="Layer_1" xmlns="http://www.w3.org/2000/svg" xmlns:xlink="http://www.w3.org/1999/xlink" x="0px" y="0px"
	 viewBox="0 0 304 288" style="enable-background:new 0 0 304 288;" xml:space="preserve">
<g>
	<path d="M45.7,95.3c0.8-4.3,1.4-8.7,2.6-13C50.6,73.2,55,64.9,61,57.6c0.2-0.3,0.4-0.5,0.7-0.8c0.1-0.1,0.2-0.1,0.2-0.1
		c17.6,17.6,35.1,35.1,52.6,52.7c-2.6,3.8-3.8,8.1-2.1,12.6c0.8,2.3,2.3,4.6,4.1,6.4c16.5,16.8,33.2,33.4,49.8,50.1
		c6.6,6.6,12,7.4,19.8,3c17.6,17.6,35.1,35.2,52.7,52.8c-10.2,8.7-22.3,14.1-36,15.7c-0.7,0.1-1.5,0.3-2.2,0.4c-3.5,0-6.9,0-10.4,0
		c-0.5-0.1-0.9-0.3-1.4-0.4c-15.4-1.6-28.9-7.6-39.9-18.5c-28.3-28.1-56.4-56.4-84.5-84.7c-8.6-8.6-14.1-19.1-16.9-30.9
		c-0.8-3.4-1.2-6.9-1.8-10.4C45.7,102.3,45.7,98.8,45.7,95.3z"/>
	<path d="M90.9,37.5c6.1,1.2,10.3,5.1,14.5,9.4c7,7.3,14.3,14.3,21.4,21.5c8.6,8.6,8.5,19.7-0.1,28.3c-1.1,1.1-2.1,2.2-2.9,3.1
		C106.1,82,88.6,64.4,71,46.8c3.5-4.3,8-8,14.2-9.3C87.1,37.5,89,37.5,90.9,37.5z"/>
	<path d="M248.7,225.3c-17.7-17.7-35.2-35.3-52.8-52.9c4.1-4.7,8.6-8.9,15.5-9.4c5.7-0.4,10.8,1,14.8,5c9,8.9,18,17.8,26.8,26.9
		c7.1,7.4,7,18.2,0.2,25.8C251.7,222.4,250.1,223.9,248.7,225.3z"/>
</g>
</svg>
