<?xml version="1.0" encoding="utf-8"?>
<!-- Generator: Adobe Illustrator 24.0.2, SVG Export Plug-In . SVG Version: 6.00 Build 0)  -->
<svg version="1.1" id="Layer_1" xmlns="http://www.w3.org/2000/svg" xmlns:xlink="http://www.w3.org/1999/xlink" x="0px" y="0px"
	 viewBox="0 0 560 560" enable-background="new 0 0 560 560" xml:space="preserve">
<g>
	<path d="M322.349,472c-28.451,0-56.903,0-85.354,0c-4.593-2.242-5.979-5.98-5.966-10.964c0.116-42.509,0.066-85.018,0.066-127.527
		c0-1.443,0-2.886,0-4.587c-1.996,0-3.473,0-4.95,0c-42.392,0-84.784-0.049-127.175,0.066c-4.981,0.014-8.731-1.355-10.971-5.957
		c0-28.446,0-56.893,0-85.339c2.24-4.604,5.987-5.973,10.975-5.959c42.538,0.118,85.077,0.067,127.615,0.067
		c1.436,0,2.872,0,4.506,0c0-2.065,0-3.55,0-5.035c0-42.531-0.004-85.062,0.004-127.593c0.001-7.571,2.85-10.441,10.339-10.444
		c25.199-0.008,50.397-0.004,75.596-0.003c8.622,0.001,11.212,2.554,11.213,11.076c0.003,42.406,0.001,84.812,0.001,127.219
		c0,1.462,0,2.923,0,4.78c1.832,0,3.296,0,4.761,0c42.538,0,85.077-0.002,127.615,0.002c8.003,0.001,10.714,2.743,10.715,10.815
		c0.004,25.07,0.003,50.139,0.001,75.209c-0.001,8.497-2.621,11.095-11.196,11.096c-42.414,0.002-84.827,0.001-127.241,0.001
		c-1.45,0-2.901,0-4.655,0c0,1.943,0,3.414,0,4.886c0,42.406-0.05,84.813,0.066,127.218
		C328.329,466.012,326.926,469.745,322.349,472z"/>
</g>
</svg>
