<?xml version="1.0" encoding="utf-8"?>
<!-- Generator: Adobe Illustrator 24.0.2, SVG Export Plug-In . SVG Version: 6.00 Build 0)  -->
<svg version="1.1" id="Layer_1" xmlns="http://www.w3.org/2000/svg" xmlns:xlink="http://www.w3.org/1999/xlink" x="0px" y="0px"
	 viewBox="0 0 560 560" enable-background="new 0 0 560 560" xml:space="preserve">
<g>
	<path d="M253.122,319.433c-32.436-19.437-33.488-60.834-10.911-82.829c21.746-21.185,56.923-19.526,76.507,3.867
		c18.912,22.589,16.253,59.762-13.922,78.423c40.796,9.854,61.272,36.628,65.474,77.937c-61.315,0-121.824,0-182.699,0
		c0.524-19.096,6.626-35.975,18.74-50.575C218.452,331.622,233.762,322.246,253.122,319.433z"/>
	<path d="M272.095,211.124c4.905-23.856,32.724-45.561,59.844-47.401c31.912-2.165,60.119,16.185,70.798,46.099
		c9.798,27.447,1.774,63.593-31.786,83.766c25.995,3.593,46.459,16.076,62.699,35.588c16.204,19.47,24.498,41.979,24.994,67.675
		c-25.929,0-51.641,0-77.661,0c1.215-38.951-19.376-64.515-50.953-83.596c0.011-0.029,0.062-0.429,0.276-0.697
		c13.926-17.433,14.707-37.841,9.589-57.683c-6.08-23.573-22.641-38.639-46.938-43.549
		C286.379,209.997,279.305,211.124,272.095,211.124z"/>
	<path d="M139.611,288.911c-13.249,0-25.929,0-38.772,0c0-8.669,0-16.977,0-25.738c12.862,0,25.622,0,38.701,0
		c0-13.111,0-25.776,0-38.749c8.715,0,17.112,0,26.018,0c0,12.737,0,25.498,0,38.663c13.269,0,26.042,0,38.987,0
		c0,8.723,0,17.035,0,25.801c-12.784,0-25.556,0-38.727,0c0,13.099,0,25.754,0,38.769c-8.892,0-17.384,0-26.207,0
		C139.611,314.872,139.611,302.202,139.611,288.911z"/>
</g>
</svg>
