<?xml version="1.0" encoding="utf-8"?>
<!-- Generator: Adobe Illustrator 24.0.3, SVG Export Plug-In . SVG Version: 6.00 Build 0)  -->
<svg version="1.1" id="Layer_1" xmlns="http://www.w3.org/2000/svg" xmlns:xlink="http://www.w3.org/1999/xlink" x="0px" y="0px"
	 viewBox="0 0 314 288" style="enable-background:new 0 0 314 288;" xml:space="preserve">
<g>
	<path d="M248.2,270.2c-61,0-122,0-183,0c-0.1-0.1-0.2-0.3-0.4-0.3c-14.5-3.5-21.4-12.3-21.4-27.3c0-20.6,0-41.2,0.1-61.9
		c0-37.2,0-74.4,0.1-111.6c0-11,4.8-19.2,14.8-23.8c3.5-1.6,7.6-1.9,11.4-2.3c3.7-0.4,7.5-0.1,11.2-0.1c0-8.6,0-16.9,0-25.2
		c8.5,0,17.1,0,25.6,0c0,8.3,0,16.7,0,25c33.6,0,67,0,100.4,0c0-8.5,0-16.7,0-25c8.5,0,17.1,0,25.6,0c0,8.3,0,16.7,0,25.2
		c4,0,7.8,0,11.7,0c4.6,0,9,0.9,13,3.2c9,5.3,13,13.4,13,23.8c-0.1,57.7,0,115.4,0,173.2c0,1,0,2-0.1,3c-0.7,10.3-5.8,17.6-15,21.9
		C252.8,269.1,250.4,269.5,248.2,270.2z M244.6,244.9c0-46.3,0-92.4,0-138.6c-58.7,0-117.3,0-176,0c0,46.3,0,92.4,0,138.6
		C127.3,244.9,185.8,244.9,244.6,244.9z"/>
	<path d="M138.7,219.1c-13-13.1-26.2-26.3-39.2-39.3c4.2-4.2,8.6-8.6,13-13c8.4,8.5,17.2,17.3,26.1,26.2
		c20.6-20.7,41.1-41.1,61.3-61.5c4.7,4.7,9,9,13.1,13.2C188.4,169.3,163.6,194.2,138.7,219.1z"/>
</g>
</svg>
