<?xml version="1.0" encoding="utf-8"?>
<!-- Generator: Adobe Illustrator 24.0.3, SVG Export Plug-In . SVG Version: 6.00 Build 0)  -->
<svg version="1.1" id="Layer_1" xmlns="http://www.w3.org/2000/svg" xmlns:xlink="http://www.w3.org/1999/xlink" x="0px" y="0px"
	 viewBox="0 0 354 288" style="enable-background:new 0 0 354 288;" xml:space="preserve">
<g>
	<path d="M50.2,147.4c0-4.3,0-8.6,0-12.9c0.1-0.5,0.4-1.1,0.4-1.6c1.3-15.1,6.1-29.2,14.1-42c21.6-34.3,53.6-51.9,92.9-57.3
		c17.8-2.4,35.6-1.5,53.3,2c25.7,5.1,48.4,16,66.6,35.4c26.1,28,33,71,16.6,105.7c-12.2,25.8-32.2,43-58.3,53.3
		c-32.2,12.6-65.2,13.4-98.7,5.8c-1.8-0.4-3-0.3-4.4,1.1c-9.7,9.3-21.1,15.7-34.4,17.4c-9.3,1.2-18.8,0.8-28.3,1
		c-0.1,0-0.2-0.2-0.3-0.5c4.1-4,8.2-8.1,12.2-12.2c6.1-6.2,9.9-13.7,11.7-22.2c0.4-2,0.1-3.3-1.8-4.7C72.7,202.5,59,185.4,53,162.6
		C51.7,157.6,51.1,152.5,50.2,147.4z"/>
</g>
</svg>
