<?xml version="1.0" encoding="utf-8"?>
<!-- Generator: Adobe Illustrator 24.0.2, SVG Export Plug-In . SVG Version: 6.00 Build 0)  -->
<svg version="1.1" id="Layer_1" xmlns="http://www.w3.org/2000/svg" xmlns:xlink="http://www.w3.org/1999/xlink" x="0px" y="0px"
	 viewBox="0 0 560 560" enable-background="new 0 0 560 560" xml:space="preserve">
<g>
	<path d="M277.606,324.178c15.529-15.585,30.382-30.492,45.822-45.988c0.673,0.922,1.356,2.163,2.316,3.129
		c13.376,13.441,26.805,26.83,40.174,40.278c1.414,1.422,2.571,2.089,4.811,1.508c40.914-10.608,79.205,13.394,87.351,54.814
		c2.75,13.98,0.794,27.546-4.88,40.583c-2.297,5.278-5.637,5.926-9.727,1.846c-13.691-13.655-27.389-27.305-41.003-41.037
		c-3.924-3.958-8.486-6.153-14.042-5.74c-7.108,0.528-12.248,4.098-14.748,10.855c-2.497,6.75-0.931,12.814,4.076,17.872
		c11.323,11.437,22.736,22.784,34.112,34.167c2.646,2.647,5.325,5.262,7.929,7.949c3.711,3.829,3.121,7.164-1.599,9.395
		c-39.199,18.521-87.442-5.356-96.679-47.844c-2.48-11.407-2.501-22.782,0.725-34.037c0.69-2.408,0.087-3.818-1.595-5.483
		c-13.474-13.343-26.848-26.787-40.28-40.172C279.492,325.398,278.381,324.758,277.606,324.178z"/>
	<path d="M276.832,232.617c-15.029,15.025-29.914,29.907-44.966,44.956c-0.74-0.704-1.727-1.603-2.671-2.546
		c-11.916-11.9-23.857-23.776-35.701-35.747c-1.653-1.671-3.049-2.272-5.471-1.628c-46.19,12.281-90.013-22.878-88.01-70.607
		c0.363-8.661,2.397-17.003,5.959-24.943c2.355-5.249,5.623-5.897,9.748-1.786c13.873,13.824,27.66,27.734,41.577,41.513
		c8.169,8.087,21.019,6.766,26.787-2.578c4.235-6.861,3.196-15.018-2.926-21.188c-13.53-13.637-27.137-27.198-40.717-40.786
		c-5.287-5.291-4.755-8.477,2.252-11.161c26.336-10.088,51.049-7.004,72.437,11.538c21.713,18.823,28.459,43.127,21.785,71.053
		c-0.575,2.408-0.093,3.809,1.595,5.48c12.059,11.933,24.014,23.97,35.997,35.979C275.367,231.028,276.185,231.933,276.832,232.617z
		"/>
	<path d="M270.583,108.673c1.928-0.93,3.781-2.09,5.797-2.752c15.916-5.223,31.721-3.859,47.4,1.106
		c19.044,6.031,35.745,16.36,51.354,28.55c18.067,14.11,35.187,29.214,46.482,49.623c2.856,5.161,6.297,10.975,6.321,16.502
		c0.038,8.647,5.246,13.888,9.278,20.845c1.74-1.709,3.169-3.183,4.673-4.575c4.843-4.48,11.671-4.537,16.199-0.169
		c4.5,4.341,4.944,11.516,0.432,16.18c-9.194,9.503-18.547,18.86-28.083,28.018c-4.656,4.471-11.863,3.865-16.15-0.742
		c-4.179-4.491-4.104-11.253,0.262-15.899c1.014-1.079,2.282-1.917,4.358-3.629c-9.481-6.856-18.054-13.37-27.016-19.294
		c-2.021-1.336-5.492-1.17-8.132-0.727c-5.256,0.882-9.258-1.221-12.958-4.355c-1.307-1.107-2.201-2.702-3.316-4.116
		c-35.682,35.72-70.753,70.83-105.843,105.958c-8.414-8.494-16.529-16.686-24.735-24.969
		c34.927-34.909,70.071-70.035,104.91-104.856c-1.804-2.836-3.77-4.868-4.422-7.258c-0.626-2.296-0.76-5.501,0.396-7.378
		c5.904-9.592,4.984-19.093,0.149-28.479c-6.437-12.496-17.273-20.376-29.947-25.268c-10.045-3.877-20.71-6.145-31.094-9.146
		c-2.079-0.601-4.133-1.284-6.199-1.93C270.66,109.5,270.621,109.087,270.583,108.673z"/>
	<path d="M139.518,459.038c-2.983-1.609-5.623-2.383-7.365-4.08c-10.628-10.353-21.11-20.859-31.518-31.434
		c-4.699-4.775-4.156-10.088,1.222-14.913c24.037-21.565,48.084-43.119,72.126-64.678c14.11-12.652,28.221-25.304,42.328-37.958
		c6.72-6.028,12.192-5.931,18.524,0.369c5.038,5.013,10.085,10.018,15.071,15.083c5.342,5.426,5.526,11.256,0.495,16.872
		c-34.356,38.359-68.708,76.722-103.163,114.991C145.208,455.547,142.293,457.008,139.518,459.038z"/>
</g>
</svg>
