<?xml version="1.0" encoding="utf-8"?>
<!-- Generator: Adobe Illustrator 24.0.3, SVG Export Plug-In . SVG Version: 6.00 Build 0)  -->
<svg version="1.1" id="Layer_1" xmlns="http://www.w3.org/2000/svg" xmlns:xlink="http://www.w3.org/1999/xlink" x="0px" y="0px"
	 viewBox="0 0 288 288" style="enable-background:new 0 0 288 288;" xml:space="preserve">
<g>
	<path d="M28,142.2c8.6-12.6,17.1-25.2,25.7-37.7c2.8-4,8.1-3.9,10.9,0.1c8.2,11.8,16.4,23.7,24.4,35.6c3.1,4.6,0.2,10.1-5.4,10.5
		c-2.1,0.1-4.2,0-6.3,0c2,23.9,19,49.2,47.9,57.5c28.6,8.2,60.4-3.2,76.6-31.2c0.4,0.5,0.8,0.9,1.1,1.3c2.5,3.6,5.1,7.1,7.4,10.8
		c4.4,6.9,10.4,10.7,19.1,10.6c-7.7,12-17.3,21.6-28.8,29.4c-19.5,13.1-41.1,18.6-64.4,17.1c-50.9-3.4-92.4-45.6-94.9-95.5
		c-4.9-0.3-10.7,1.4-13.4-5C28,144.6,28,143.4,28,142.2z"/>
	<path d="M85.3,111c-3.1-4.5-6-9.1-9.3-13.4c-1.9-2.5-4.2-4.7-6.7-6.5c-3.2-2.3-7.1-3-11.2-2.9c17.1-27.8,53.6-51.3,98.1-46
		c49.9,5.9,87.7,48.4,89.7,95c2,0,4,0,6,0c2.8,0,5.2,1,6.5,3.6c1.4,2.6,0.9,5.1-0.7,7.4c-7.9,11.6-15.8,23.1-23.8,34.7
		c-3.1,4.6-8.5,4.5-11.6,0c-8-11.5-15.9-23.1-23.8-34.7c-1.6-2.4-2.1-4.8-0.7-7.4c1.4-2.6,3.7-3.6,6.6-3.6c1.8,0,3.6,0,5.4,0
		c-1.1-19.2-14.6-45.6-43.6-56.2C138.4,70.9,102.5,80.6,85.3,111z"/>
	<path d="M150.5,176.3c-0.5,7.3-2.4,10.1-6.7,10c-1.5,0-3.2-0.7-4.3-1.6c-1.1-0.9-1.9-2.4-2.3-3.7c-0.4-1.5-0.3-3.1-0.4-4.1
		c-3.2-1.6-6.3-2.7-8.8-4.6c-4-2.9-6-7.2-6.3-12.3c-0.2-3.9,2.4-7.1,6-7.4c3.7-0.3,6.8,2.3,7.2,6.2c0.4,2.9,1.4,3.8,4.2,3.9
		c3,0,6,0.1,9,0c2.6-0.1,3.9-1.3,3.9-3.9c0.1-7.3,0.5-8.4-7.8-8.1c-2.8,0.1-5.7,0.1-8.6-0.3c-7.5-1.1-13.4-7.3-13.9-14.8
		c-0.2-3.4-0.4-6.9,0.2-10.1c1.3-6.9,5.7-11.3,12.5-13.1c0.6-0.2,1.2-0.3,1.8-0.4c0.1,0,0.2-0.2,0.4-0.2c0.8-7.5,2.5-10,6.8-10
		c4.4,0,6.2,2.6,6.9,10.1c0.6,0.2,1.2,0.4,1.9,0.5c7.6,1.7,13,8.3,13.2,16c0.1,3.8-2.6,6.8-6.2,7.1c-3.6,0.3-6.6-2.4-7.1-6.1
		c-0.4-3.1-1.3-4-4.3-4c-2.9,0-5.7,0-8.6,0c-3,0-4.2,1.2-4.3,4.2c0,1.2,0,2.4,0,3.6c0,2.9,1.2,4.1,4.1,4.2c4.1,0.1,8.2-0.1,12.2,0.4
		c7.7,1,13.5,7.3,14.1,15.1c0.2,3.2,0.4,6.6-0.2,9.7c-1.3,6.9-5.7,11.3-12.4,13.2c-0.6,0.2-1.2,0.3-1.8,0.4
		C150.8,176.1,150.7,176.2,150.5,176.3z"/>
</g>
</svg>
