<?xml version="1.0" encoding="utf-8"?>
<!-- Generator: Adobe Illustrator 24.0.2, SVG Export Plug-In . SVG Version: 6.00 Build 0)  -->
<svg version="1.1" id="Layer_1" xmlns="http://www.w3.org/2000/svg" xmlns:xlink="http://www.w3.org/1999/xlink" x="0px" y="0px"
	 viewBox="0 0 560 560" enable-background="new 0 0 560 560" xml:space="preserve">
<g>
	<path d="M120.187,472c-3.686-1.728-7.709-2.979-10.985-5.289c-5.931-4.183-9.096-10.381-9.131-17.613
		c-0.152-31.802-0.073-63.605-0.067-95.407c0-0.35,0.141-0.7,0.257-1.245c15.692,0,31.358,0,47.43,0c0,23.66,0,47.4,0,71.394
		c88.003,0,175.601,0,263.605,0c0-23.729,0-47.468,0-71.404c16.069,0,31.735,0,47.975,0c0,1.383,0,2.817,0,4.251
		c0,28.809,0,57.619,0,86.428c0,16.964-4.363,23.201-20.208,28.884C332.772,472,226.48,472,120.187,472z"/>
	<path d="M243.699,208.511c-15.989,0-31.444-0.023-46.898,0.013c-5.034,0.012-8.989-1.847-11.476-6.318
		c-2.669-4.798-1.907-9.636,2.268-14.42c15.254-17.478,30.534-34.934,45.806-52.397c11.905-13.614,23.805-27.232,35.722-40.836
		c6.808-7.772,14.149-7.854,20.872-0.174c27.028,30.876,54.005,61.796,81.074,92.636c3.768,4.293,5.739,8.832,3.283,14.324
		c-2.518,5.631-7.298,7.277-13.173,7.217c-13.72-0.14-27.443-0.045-41.164-0.045c-1.345,0-2.691,0-4.46,0c0,1.75,0,3.204,0,4.659
		c0,49.522,0.002,99.045-0.001,148.567c-0.001,9.998-4.4,14.442-14.296,14.445c-14.719,0.006-29.439,0.018-44.158-0.005
		c-8.599-0.013-13.39-4.828-13.392-13.469c-0.011-49.772-0.005-99.543-0.006-149.315
		C243.699,211.919,243.699,210.444,243.699,208.511z"/>
</g>
</svg>
